<?xml version="1.0" encoding="UTF-8" standalone="no"?>
<svg
   id="Logo_Stacked"
   viewBox="0 0 2200 1200"
   version="1.1"
   sodipodi:docname="pixelfarming.svg"
   width="2200"
   height="1200"
   inkscape:version="1.4.2 (f4327f4, 2025-05-13)"
   xmlns:inkscape="http://www.inkscape.org/namespaces/inkscape"
   xmlns:sodipodi="http://sodipodi.sourceforge.net/DTD/sodipodi-0.dtd"
   xmlns="http://www.w3.org/2000/svg"
   xmlns:svg="http://www.w3.org/2000/svg">
  <defs
     id="defs13" />
  <sodipodi:namedview
     id="namedview13"
     pagecolor="#ffffff"
     bordercolor="#000000"
     borderopacity="0.25"
     inkscape:showpageshadow="2"
     inkscape:pageopacity="0.0"
     inkscape:pagecheckerboard="0"
     inkscape:deskcolor="#d1d1d1"
     inkscape:zoom="0.20293566"
     inkscape:cx="1241.7729"
     inkscape:cy="29.566021"
     inkscape:window-width="1269"
     inkscape:window-height="1308"
     inkscape:window-x="-1"
     inkscape:window-y="46"
     inkscape:window-maximized="0"
     inkscape:current-layer="Logo_Stacked" />
  <rect
     style="fill:#ffffff;stroke-width:0.602;stroke:none"
     id="rect2"
     width="2200"
     height="1200"
     x="0"
     y="0" />
  <path
     d="m 210.19466,964.68097 c -6.25,-3.34 -13.67,-5.01 -22.25,-5.01 h -47.49 V 1074.671 h 28 v -36 h 18.64 c 8.77,0 16.35,-1.62 22.73,-4.87 6.38,-3.25 11.3,-7.83 14.75,-13.74 3.45,-5.92 5.18,-12.83 5.18,-20.74003 0,-7.91 -1.7,-14.79 -5.09,-20.74 -3.4,-5.95 -8.22,-10.6 -14.47,-13.94 m -11.06,43.69003 c -1.46,2.64 -3.61,4.69 -6.43,6.15 -2.83,1.46 -6.34,2.19 -10.53,2.19 h -13.71 v -35.00003 h 13.71 c 4.16,0 7.66,0.71 10.51,2.13 2.84,1.42 5,3.44 6.46,6.04 1.46,2.6 2.19,5.68 2.19,9.24 0,3.56003 -0.73,6.60003 -2.19,9.24003"
     id="path1" />
  <rect
     x="243.45465"
     y="959.67096"
     width="28"
     height="115"
     id="rect1" />
  <polygon
     points="196.96,908 197.87,908 219.59,945 251.22,945 215.39,887.5 250.09,830 218.89,830 197.86,866 196.97,866 176.16,830 144.74,830 179.5,887.5 143.84,945 175.24,945 "
     id="polygon1"
     transform="translate(140.45466,129.67097)" />
  <polygon
     points="264,830 264,945 344,945 344,922 292,922 292,899 340,899 340,876 292,876 292,852 344,852 344,830 "
     id="polygon2"
     transform="translate(140.45466,129.67097)" />
  <polygon
     points="389,922 389,830 362,830 362,945 437,945 437,922 "
     id="polygon3"
     transform="translate(140.45466,129.67097)" />
  <polygon
     points="530,853 530,830 451,830 451,945 479,945 479,899 525,899 525,876 479,876 479,853 "
     id="polygon4"
     transform="translate(140.45466,129.67097)" />
  <path
     d="m 703.41466,959.67097 -38.8,115.00003 h 30.04 l 7.52,-24 h 39.48 l 7.54,24 h 30.04 l -38.8,-115.00003 h -37 z m 5.17,70.00003 12.85,-41.00003 h 0.9 l 12.87,41.00003 z"
     id="path4" />
  <path
     d="m 875.40466,1018.091 c 3.47,-5.54 5.21,-12.29 5.21,-20.24003 0,-7.95 -1.7,-14.62 -5.1,-20.35 -3.4,-5.73 -8.22,-10.13 -14.47,-13.21 -6.25,-3.08 -13.67,-4.62 -22.26,-4.62 h -47.33 V 1074.671 h 28 v -39 h 14.34 l 21.18,39 h 29.55 l -23.78,-43.65 c 6.32,-2.89 11.21,-7.09 14.66,-12.59 m -55.95,-35.76003 h 13.56 c 4.11,0 7.57,0.58 10.39,1.75 2.81,1.17 4.94,2.91 6.39,5.22 1.44,2.32 2.17,5.23 2.17,8.75 0,3.52003 -0.72,6.40003 -2.17,8.64003 -1.44,2.24 -3.57,3.91 -6.36,5 -2.8,1.09 -6.27,1.64 -10.42,1.64 h -13.56 z"
     id="path5" />
  <polygon
     points="782.95,874 810.46,944 828.19,944 855.46,875 857,875 857,945 884,945 884,830 849.68,830 820.56,901 819.21,901 790.1,830 755,830 755,945 782,945 782,874 "
     id="polygon5"
     transform="translate(140.45466,129.67097)" />
  <rect
     x="1041.4547"
     y="959.67096"
     width="28"
     height="115"
     id="rect5" />
  <polygon
     points="1016,830 1016,896 1015.04,896 969.35,830 946,830 946,945 974,945 974,879 974.73,879 1020.44,945 1044,945 1044,830 "
     id="polygon6"
     transform="translate(140.45466,129.67097)" />
  <path
     d="m 1256.4547,1031.671 h 22.06 c -0.09,3.92 -1,7.34 -2.75,10.27 -1.84,3.09 -4.54,5.47 -8.1,7.14 -3.56,1.68 -7.89,2.51 -13.01,2.51 -5.8,0 -10.73,-1.37 -14.79,-4.12 -4.06,-2.75 -7.17,-6.74 -9.31,-11.97 -2.15,-5.23 -3.22,-11.55 -3.22,-18.97 0,-7.42 1.11,-13.65 3.33,-18.83003 2.22,-5.17 5.37,-9.12 9.46,-11.83 4.08,-2.71 8.93,-4.07 14.54,-4.07 2.78,0 5.34,0.33 7.68,0.99 2.33,0.66 4.4,1.63 6.21,2.91 1.81,1.28 3.33,2.83 4.57,4.66 1.24,1.82 2.18,3.92 2.82,6.29 h 28.28 c -0.68,-5.76 -2.41,-11.04 -5.19,-15.86 -2.79,-4.82 -6.41,-8.98 -10.87,-12.48 -4.46,-3.5 -9.58,-6.21 -15.35,-8.13 -5.78,-1.92 -12.01,-2.88 -18.71,-2.88 -7.72,0 -14.91,1.32 -21.59,3.95 -6.68,2.63 -12.55,6.51 -17.61,11.63 -5.06,5.12 -9,11.36 -11.83,18.71 -2.82,7.36 -4.23,15.78003 -4.23,25.26003 0,12.19 2.33,22.72 7,31.58 4.67,8.86 11.18,15.68 19.53,20.46 8.35,4.78 18.04,7.17 29.07,7.17 9.94,0 18.73,-1.98 26.39,-5.93 7.66,-3.95 13.68,-9.62 18.06,-16.99 4.38,-7.38 6.58,-16.24 6.58,-26.59 v -14.92 h -49 v 20 z"
     id="path6" />
  <path
     d="m 1386.2247,1023.661 c 5.45,-2.87 9.56,-6.87 12.35,-11.98 2.78,-5.11 4.17,-11.01 4.17,-17.69003 0,-6.68 -1.39,-12.61 -4.17,-17.78 -2.78,-5.17 -6.91,-9.22 -12.37,-12.15 -5.47,-2.93 -12.27,-4.39 -20.41,-4.39 h -36.34 V 1074.671 h 10 v -46 h 25.51 c 1.44,0 2.83,-0.07 4.18,-0.17 l 24,46.17 h 14.41 l -26.47,-48.53 c 1.82,-0.6 3.54,-1.3 5.14,-2.14 m -20.77,-5.33 h -26 v -49.00003 h 26.08 c 6.01,0 10.98,1.02 14.93,3.06 3.95,2.04 6.91,4.92 8.87,8.65 1.96,3.73 2.95,8.07 2.95,13.04 0,4.97 -0.97,9.27003 -2.92,12.90003 -1.95,3.63 -4.89,6.43 -8.84,8.4 -3.95,1.97 -8.89,2.95 -14.82,2.95"
     id="path7" />
  <path
     d="m 1498.3347,965.50097 c -7.45,-4.83 -16,-7.25 -25.67,-7.25 -9.67,0 -18.18,2.42 -25.64,7.25 -7.47,4.83 -13.32,11.66 -17.55,20.49 -4.24,8.83 -6.35,19.21003 -6.35,31.16003 0,11.95 2.12,22.33 6.35,31.16 4.24,8.83 10.08,15.66 17.52,20.49 7.45,4.83 16,7.25 25.67,7.25 9.67,0 18.22,-2.42 25.67,-7.25 7.45,-4.83 13.3,-11.66 17.55,-20.49 4.25,-8.83 6.38,-19.21 6.38,-31.16 0,-11.95 -2.13,-22.33003 -6.38,-31.16003 -4.26,-8.83 -10.11,-15.66 -17.55,-20.49 m 8.65,78.05003 c -3.43,7.33 -8.13,12.94 -14.08,16.82 -5.95,3.88 -12.7,5.82 -20.24,5.82 -7.54,0 -14.28,-1.95 -20.21,-5.85 -5.93,-3.9 -10.62,-9.51 -14.05,-16.82 -3.43,-7.32 -5.15,-16.11 -5.15,-26.37 0,-10.26 1.73,-19.11003 5.18,-26.43003 3.45,-7.32 8.15,-12.91 14.08,-16.8 5.94,-3.88 12.65,-5.82 20.16,-5.82 7.51,0 14.28,1.94 20.21,5.82 5.93,3.88 10.62,9.49 14.05,16.82 3.43,7.33 5.15,16.13003 5.15,26.40003 0.04,10.26 -1.66,19.06 -5.09,26.4"
     id="path8" />
  <path
     d="m 1612.1747,1019.671 c -3.46,-2.34 -7.04,-3.64 -10.72,-3.9 v -0.9 c 3.39,-0.93 6.46,-2.45 9.21,-4.55 2.75,-2.1 4.93,-4.85 6.53,-8.25 1.6,-3.41003 2.4,-7.51003 2.4,-12.30003 0,-5.76 -1.25,-10.91 -3.74,-15.44 -2.49,-4.53 -6.23,-8.1 -11.2,-10.72 -4.97,-2.62 -11.18,-3.93 -18.62,-3.93 h -38.59 V 1074.681 h 40.71 c 8.19,0 14.94,-1.3 20.24,-3.9 5.31,-2.6 9.24,-6.18 11.81,-10.73 2.57,-4.55 3.85,-9.72 3.85,-15.53 0,-5.81 -1.12,-10.86 -3.35,-15.05 -2.23,-4.19 -5.08,-7.46 -8.54,-9.8 m -53.71,-50.00003 h 27.96 c 7.77,0 13.61,1.9 17.53,5.69 3.92,3.79 5.88,8.7 5.88,14.73 0,4.18 -0.94,7.9 -2.83,11.15003 -1.89,3.26 -4.51,5.81 -7.88,7.66 -3.37,1.85 -7.29,2.77 -11.76,2.77 h -28.91 v -42.00003 z m 49.77,89.15003 c -4.22,3.9 -10.73,5.85 -19.55,5.85 h -30.23 v -44 h 30.67 c 5.13,0 9.6,1.04 13.41,3.12 3.81,2.08 6.77,4.9 8.87,8.45 2.1,3.55 3.15,7.5 3.15,11.85 0,5.91 -2.11,10.82 -6.33,14.72"
     id="path9" />
  <path
     d="m 1719.7147,965.50097 c -7.45,-4.83 -16,-7.25 -25.67,-7.25 -9.67,0 -18.18,2.42 -25.64,7.25 -7.47,4.83 -13.32,11.66 -17.55,20.49 -4.24,8.83 -6.35,19.21003 -6.35,31.16003 0,11.95 2.12,22.33 6.35,31.16 4.24,8.83 10.08,15.66 17.52,20.49 7.45,4.83 16,7.25 25.67,7.25 9.67,0 18.22,-2.42 25.67,-7.25 7.45,-4.83 13.3,-11.66 17.55,-20.49 4.25,-8.83 6.38,-19.21 6.38,-31.16 0,-11.95 -2.13,-22.33003 -6.38,-31.16003 -4.26,-8.83 -10.11,-15.66 -17.55,-20.49 m 8.65,78.05003 c -3.43,7.33 -8.13,12.94 -14.08,16.82 -5.95,3.88 -12.7,5.82 -20.24,5.82 -7.54,0 -14.28,-1.95 -20.21,-5.85 -5.93,-3.9 -10.62,-9.51 -14.05,-16.82 -3.43,-7.32 -5.15,-16.11 -5.15,-26.37 0,-10.26 1.73,-19.11003 5.18,-26.43003 3.45,-7.32 8.15,-12.91 14.08,-16.8 5.94,-3.88 12.65,-5.82 20.16,-5.82 7.51,0 14.28,1.94 20.21,5.82 5.93,3.88 10.62,9.49 14.05,16.82 3.43,7.33 5.15,16.13003 5.15,26.40003 0.04,10.26 -1.66,19.06 -5.09,26.4"
     id="path10" />
  <polygon
     points="1617,830 1617,839 1653,839 1653,945 1663,945 1663,839 1700,839 1700,830 "
     id="polygon10"
     transform="translate(140.45466,129.67097)" />
  <rect
     x="1864.4547"
     y="959.67096"
     width="10"
     height="115"
     id="rect10" />
  <path
     d="m 1929.4947,973.78097 c 5.95,-3.77 12.55,-5.65 19.79,-5.65 4.52,0 8.71,0.69 12.6,2.07 3.88,1.38 7.35,3.32 10.41,5.82 3.06,2.5 5.61,5.42 7.64,8.76 2.03,3.34 3.44,6.97 4.23,10.89 h 10.53 c -0.93,-5.3 -2.68,-10.21 -5.24,-14.73 -2.56,-4.52 -5.81,-8.48 -9.74,-11.9 -3.94,-3.42 -8.46,-6.07 -13.58,-7.95 -5.11,-1.88 -10.73,-2.83 -16.85,-2.83 -9.63,0 -18.18,2.42 -25.64,7.25 -7.47,4.83 -13.32,11.66 -17.55,20.46 -4.24,8.81 -6.35,19.20003 -6.35,31.19003 0,11.99 2.12,22.38 6.35,31.19 4.24,8.81 10.09,15.63 17.55,20.46 7.47,4.83 16.01,7.25 25.64,7.25 6.12,0 11.74,-0.95 16.85,-2.86 5.11,-1.9 9.64,-4.55 13.58,-7.95 3.94,-3.4 7.19,-7.36 9.74,-11.9 2.56,-4.53 4.3,-9.43 5.24,-14.7 h -10.53 c -0.78,3.92 -2.19,7.56 -4.23,10.92 -2.04,3.36 -4.58,6.28 -7.64,8.76 -3.06,2.48 -6.53,4.41 -10.41,5.8 -3.88,1.38 -8.08,2.07 -12.6,2.07 -7.24,0 -13.84,-1.88 -19.79,-5.63 -5.95,-3.75 -10.71,-9.27 -14.28,-16.54 -3.56,-7.28 -5.35,-16.24 -5.35,-26.88 0,-10.64 1.78,-19.49003 5.35,-26.79003 3.56,-7.3 8.32,-12.83 14.28,-16.6"
     id="path11" />
  <path
     d="m 2090.3047,1031.671 c -1.84,-3.4 -4.27,-6.27 -7.29,-8.63 -3.03,-2.36 -6.36,-4.31 -9.99,-5.87 -3.64,-1.56 -7.27,-2.84 -10.91,-3.84 l -12.02,-3.45 c -2.75,-0.78 -5.46,-1.74 -8.15,-2.89 -2.69,-1.15 -5.14,-2.53 -7.35,-4.15 -2.21,-1.61 -3.96,-3.55003 -5.26,-5.82003 -1.3,-2.26 -1.95,-4.9 -1.95,-7.9 0,-4.08 1.14,-7.73 3.42,-10.94 2.28,-3.21 5.44,-5.72 9.46,-7.54 4.03,-1.82 8.69,-2.73 14,-2.73 7.53,0 13.79,1.87 18.76,5.62 4.97,3.75 7.77,8.79 8.41,15.14 h 10.08 c -0.22,-5.79 -1.94,-10.96 -5.15,-15.5 -3.21,-4.55 -7.54,-8.12 -13,-10.72 -5.46,-2.6 -11.73,-3.9 -18.81,-3.9 -7.08,0 -13.33,1.31 -18.95,3.92 -5.62,2.62 -10.07,6.25 -13.36,10.91 -3.28,4.66 -4.93,10.05 -4.93,16.17 0,7.31 2.47,13.32003 7.4,18.03003 4.93,4.71 11.87,8.41 20.82,11.08 l 13.64,4.01 c 4.71,1.37 8.86,2.95 12.44,4.73 3.58,1.78 6.37,3.98 8.38,6.6 2,2.61 3.01,5.85 3.01,9.71 0,4.56 -1.27,8.56 -3.81,12 -2.54,3.43 -6.03,6.1 -10.47,8.01 -4.44,1.91 -9.49,2.87 -15.17,2.87 -5.12,0 -9.76,-0.81 -13.92,-2.42 -4.16,-1.61 -7.53,-3.98 -10.13,-7.1 -2.6,-3.12 -4.08,-6.92 -4.45,-11.41 h -10.69 c 0.41,6.01 2.25,11.3 5.51,15.86 3.26,4.56 7.76,8.14 13.47,10.71 5.71,2.58 12.45,3.87 20.21,3.87 8.24,0 15.31,-1.42 21.21,-4.26 5.9,-2.84 10.43,-6.69 13.58,-11.55 3.15,-4.86 4.73,-10.33 4.73,-16.42 0,-4.75 -0.92,-8.82 -2.75,-12.22"
     id="path12" />
  <path
     d="m 906.45466,129.67097 v 696 h 251.00004 v -222 h 222 v -474 z m 188.00004,27 v 52.6 l -29.63,30.09 c -9.23,-6.64 -20.87,-10.04 -33.41,-8.24 -20.35,2.91 -36.39004,19.22 -39.36004,39.56 -4.27,29.3 17.97004,54.48 45.99004,54.48 25.69,0 46.52,-21.16 46.52,-47.26 0,-5.88 -1.19,-11.44 -3.12,-16.63 l 40.01,-40.63 v -63.97 h 103 v 103 l -50.67,0.16 -80.33,80.09 -0.67,53.75 H 933.45466 v -237 z m -37.88,121.35 c 0,10.93 -8.9,19.83 -19.83,19.83 -10.93,0 -19.83,-8.89 -19.83,-19.83 0,-10.94 8.89,-19.83 19.83,-19.83 10.94,0 19.83,8.89 19.83,19.83 m 295.88,297.65 h -73 v -78.09 l -27,-27.23 v -50.12 c 20.11,-5.52 34.86,-24.01 34.23,-46.03 -0.69,-24.25 -20.34,-44.15 -44.58,-45.12 -26.56,-1.07 -48.44,20.15 -48.44,46.48 0,20.51 13.36,37.72 31.79,43.91 v 62.24 l 27,27.23 v 66.73 h -123 v 222 H 933.45466 v -247 h 44.35 l 28.00004,-28 h 38.3 c 5.98,19.59 24.31,33.79 46.04,32.98 24.09,-0.89 43.76,-20.47 44.73,-44.56 1.07,-26.57 -20.15,-48.45 -46.48,-48.45 -20.96,0 -38.48,13.96 -44.29,33.02 h -50.98004 l -28,28 h -31.67 v -102 h 187.00004 l 0.87,-69.19 64.46,-64.81 66.67,-0.21 v -130.78 h 100 z m -112.1,-180.27 c -10.93,0 -19.83,-8.89 -19.83,-19.83 0,-10.94 8.9,-19.83 19.83,-19.83 10.93,0 19.83,8.9 19.83,19.83 0,10.93 -8.9,19.83 -19.83,19.83 m -171.81,114.2 c 0,-10.93 8.89,-19.83 19.83,-19.83 10.94,0 19.83,8.89 19.83,19.83 0,10.94 -8.9,19.83 -19.83,19.83 -10.93,0 -19.83,-8.89 -19.83,-19.83"
     id="path13" />
  <rect
     x="1564.4547"
     y="965.67096"
     width="3"
     height="3"
     id="rect13" />
</svg>
